<svg xmlns="http://www.w3.org/2000/svg" viewBox="0 0 32 32">
    <circle cx="16" cy="16" r="16" fill="#1B4332"/>
    <g transform="translate(3.5,3.5)">
        <path d="M15 4C10.03 4 6 8.03 6 13C6 17.97 10.03 22 15 22C12.46 22 10.13 20.95 8.46 19.24C8.16 19.56 8 19.97 8 20.41C8 21.29 8.71 22 9.59 22C10.01 22 10.41 21.84 10.71 21.54C10.92 21.33 11.22 21.22 11.54 21.22C12.24 21.22 12.76 21.74 12.76 22.44C12.76 22.76 12.65 23.06 12.44 23.29C12.14 23.59 12 24 12 24C13 24.67 14 25 15 25C20.52 25 25 20.52 25 15C25 9.03 20.52 4 15 4Z" fill="#B8860B" opacity="0.95"/>
        <circle cx="20" cy="7" r="2" fill="#B8860B" opacity="0.7"/>
        <circle cx="23" cy="11" r="1.2" fill="#B8860B" opacity="0.5"/>
    </g>
</svg>
